<svg width="40" height="39" viewBox="0 0 40 39" fill="none" xmlns="http://www.w3.org/2000/svg">
<path fill-rule="evenodd" clip-rule="evenodd" d="M33.9232 13.6947C33.9232 17.3496 30.9602 20.3125 27.3053 20.3125C23.6504 20.3125 20.6875 17.3496 20.6875 13.6947C20.6875 10.0398 23.6504 7.07686 27.3053 7.07686C30.9602 7.07686 33.9232 10.0398 33.9232 13.6947Z" stroke="white" stroke-width="2.26493"/>
<g clip-path="url(#clip0_1_78)">
<line x1="38.2053" y1="14.2256" x2="36.8605" y2="14.2256" stroke="#F25022" stroke-width="2.26493" stroke-linecap="round" stroke-linejoin="round"/>
</g>
<g clip-path="url(#clip1_1_78)">
<line x1="17.7501" y1="14.2256" x2="16.4053" y2="14.2256" stroke="#F25022" stroke-width="2.26493" stroke-linecap="round" stroke-linejoin="round"/>
</g>
<g clip-path="url(#clip2_1_78)">
<line x1="38.2053" y1="14.2256" x2="36.8605" y2="14.2256" stroke="white" stroke-width="2.26493" stroke-linecap="round" stroke-linejoin="round"/>
</g>
<g clip-path="url(#clip3_1_78)">
<line x1="17.7501" y1="14.2256" x2="16.4053" y2="14.2256" stroke="white" stroke-width="2.26493" stroke-linecap="round" stroke-linejoin="round"/>
</g>
<g clip-path="url(#clip4_1_78)">
<line x1="36.4795" y1="19.6044" x2="35.3148" y2="18.932" stroke="white" stroke-width="2.26493" stroke-linecap="round" stroke-linejoin="round"/>
</g>
<g clip-path="url(#clip5_1_78)">
<line x1="32.2956" y1="23.3999" x2="31.6232" y2="22.2352" stroke="white" stroke-width="2.26493" stroke-linecap="round" stroke-linejoin="round"/>
</g>
<g clip-path="url(#clip6_1_78)">
<line x1="22.068" y1="5.68538" x2="21.3956" y2="4.52075" stroke="white" stroke-width="2.26493" stroke-linecap="round" stroke-linejoin="round"/>
</g>
<g clip-path="url(#clip7_1_78)">
<line x1="26.7745" y1="24.5947" x2="26.7745" y2="23.2499" stroke="white" stroke-width="2.26493" stroke-linecap="round" stroke-linejoin="round"/>
</g>
<g clip-path="url(#clip8_1_78)">
<line x1="26.7745" y1="4.13947" x2="26.7745" y2="2.79467" stroke="white" stroke-width="2.26493" stroke-linecap="round" stroke-linejoin="round"/>
</g>
<g clip-path="url(#clip9_1_78)">
<line x1="21.3956" y1="22.8692" x2="22.068" y2="21.7045" stroke="white" stroke-width="2.26493" stroke-linecap="round" stroke-linejoin="round"/>
</g>
<g clip-path="url(#clip10_1_78)">
<line x1="31.6232" y1="5.15465" x2="32.2956" y2="3.99002" stroke="white" stroke-width="2.26493" stroke-linecap="round" stroke-linejoin="round"/>
</g>
<g clip-path="url(#clip11_1_78)">
<line x1="17.6003" y1="18.6847" x2="18.765" y2="18.0123" stroke="white" stroke-width="2.26493" stroke-linecap="round" stroke-linejoin="round"/>
</g>
<g clip-path="url(#clip12_1_78)">
<line x1="35.3151" y1="8.45712" x2="36.4797" y2="7.78472" stroke="white" stroke-width="2.26493" stroke-linecap="round" stroke-linejoin="round"/>
</g>
<path d="M33.3216 13.6948C33.3216 17.0174 30.628 19.711 27.3054 19.711C23.9827 19.711 21.2892 17.0174 21.2892 13.6948C21.2892 10.3721 23.9827 7.67854 27.3054 7.67854C30.628 7.67854 33.3216 10.3721 33.3216 13.6948Z" fill="#FF5071"/>
<path fill-rule="evenodd" clip-rule="evenodd" d="M18.77 11.9284C18.77 11.9284 18.8809 12.4915 18.9187 12.4969C20.9604 12.7881 22.4924 13.979 22.4924 16.1013C22.4924 18.4271 20.6069 20.3126 18.281 20.3126H7.45183C5.12597 20.3126 3.24048 18.4271 3.24048 16.1013C3.24048 13.979 4.81025 12.2234 6.852 11.9323C6.88983 11.9269 6.92689 11.9257 6.96286 11.9284C7.5053 9.16317 9.94223 7.07692 12.8664 7.07692C15.7906 7.07692 18.2276 9.16317 18.77 11.9284Z" fill="#F3F3F3"/>
<path d="M7.77034 20.3126C5.26857 20.3126 3.24048 18.3373 3.24048 15.9007C3.24048 13.7724 4.78774 11.9961 6.84647 11.5806C7.5542 8.98758 9.98122 7.07692 12.8664 7.07692C16.1281 7.07692 18.8042 9.51874 19.0728 12.6279C21.0044 12.8861 22.4924 14.4999 22.4924 16.4522C22.4924 18.5842 20.7178 20.3126 18.5288 20.3126H7.77034Z" stroke="#1C232D" stroke-width="2.26493" stroke-linecap="round" stroke-linejoin="round"/>
<path fill-rule="evenodd" clip-rule="evenodd" d="M27.9571 16.9552C27.9571 16.9552 28.1049 17.7059 28.1554 17.7131C30.8777 18.1013 32.9203 19.6893 32.9203 22.5189C32.9203 25.6201 30.4063 28.1341 27.3052 28.1341H12.8662C9.76508 28.1341 7.2511 25.6201 7.2511 22.5189C7.2511 19.6893 9.34412 17.3485 12.0665 16.9603C12.1169 16.9531 12.1663 16.9516 12.2143 16.9552C12.9375 13.2681 16.1868 10.4865 20.0857 10.4865C23.9846 10.4865 27.2339 13.2681 27.9571 16.9552Z" fill="#F3F3F3"/>
<path d="M13.2909 28.1341C9.95522 28.1341 7.2511 25.5004 7.2511 22.2515C7.2511 19.4138 9.31412 17.0454 12.0591 16.4914C13.0027 13.034 16.2388 10.4865 20.0857 10.4865C24.4346 10.4865 28.0028 13.7422 28.3609 17.8877C30.9364 18.2321 32.9203 20.3838 32.9203 22.9869C32.9203 25.8296 30.5542 28.1341 27.6355 28.1341H13.2909Z" stroke="#1C232D" stroke-width="2.26493" stroke-linecap="round" stroke-linejoin="round"/>
<defs>
<clipPath id="clip0_1_78">
<rect x="35.1264" y="12.4915" width="4.81298" height="2.40649" rx="1.20324" fill="white"/>
</clipPath>
<clipPath id="clip1_1_78">
<rect x="14.6712" y="12.4915" width="4.81298" height="2.40649" rx="1.20324" fill="white"/>
</clipPath>
<clipPath id="clip2_1_78">
<rect x="35.1264" y="12.4915" width="4.81298" height="2.40649" rx="1.20324" fill="white"/>
</clipPath>
<clipPath id="clip3_1_78">
<rect x="14.6712" y="12.4915" width="4.81298" height="2.40649" rx="1.20324" fill="white"/>
</clipPath>
<clipPath id="clip4_1_78">
<rect x="34.6801" y="16.5635" width="4.81298" height="2.40649" rx="1.20324" transform="rotate(30 34.6801 16.5635)" fill="white"/>
</clipPath>
<clipPath id="clip5_1_78">
<rect x="32.2579" y="19.8663" width="4.81298" height="2.40649" rx="1.20324" transform="rotate(60 32.2579 19.8663)" fill="white"/>
</clipPath>
<clipPath id="clip6_1_78">
<rect x="22.0303" y="2.15163" width="4.81298" height="2.40649" rx="1.20324" transform="rotate(60 22.0303 2.15163)" fill="white"/>
</clipPath>
<clipPath id="clip7_1_78">
<rect x="28.5085" y="21.5158" width="4.81298" height="2.40649" rx="1.20324" transform="rotate(90 28.5085 21.5158)" fill="white"/>
</clipPath>
<clipPath id="clip8_1_78">
<rect x="28.5085" y="1.06064" width="4.81298" height="2.40649" rx="1.20324" transform="rotate(90 28.5085 1.06064)" fill="white"/>
</clipPath>
<clipPath id="clip9_1_78">
<rect x="24.4368" y="21.0695" width="4.81298" height="2.40649" rx="1.20324" transform="rotate(120 24.4368 21.0695)" fill="white"/>
</clipPath>
<clipPath id="clip10_1_78">
<rect x="34.6644" y="3.35487" width="4.81298" height="2.40649" rx="1.20324" transform="rotate(120 34.6644 3.35487)" fill="white"/>
</clipPath>
<clipPath id="clip11_1_78">
<rect x="21.1337" y="18.647" width="4.81298" height="2.40649" rx="1.20324" transform="rotate(150 21.1337 18.647)" fill="white"/>
</clipPath>
<clipPath id="clip12_1_78">
<rect x="38.8484" y="8.41945" width="4.81298" height="2.40649" rx="1.20324" transform="rotate(150 38.8484 8.41945)" fill="white"/>
</clipPath>
</defs>
</svg>
